<?xml version="1.0" encoding="UTF-8"?>
<svg width="24px" height="24px" viewBox="0 0 24 24" version="1.1" xmlns="http://www.w3.org/2000/svg" xmlns:xlink="http://www.w3.org/1999/xlink">
    <!-- Generator: Sketch 52.5 (67469) - http://www.bohemiancoding.com/sketch -->
    <title>icon/social/ic-people-outline</title>
    <desc>Created with Sketch.</desc>
    <defs>
        <path d="M7.71428571,11.7142857 C5.58404454,11.7142857 3.85714286,9.98738403 3.85714286,7.85714286 C3.85714286,5.72690168 5.58404454,4 7.71428571,4 C9.84452689,4 11.5714286,5.72690168 11.5714286,7.85714286 C11.5714286,9.98738403 9.84452689,11.7142857 7.71428571,11.7142857 Z M7.71428571,9.71428571 C8.73995739,9.71428571 9.57142857,8.88281454 9.57142857,7.85714286 C9.57142857,6.83147118 8.73995739,6 7.71428571,6 C6.68861404,6 5.85714286,6.83147118 5.85714286,7.85714286 C5.85714286,8.88281454 6.68861404,9.71428571 7.71428571,9.71428571 Z M12.3222983,18.2857143 C11.8636862,16.1624217 9.97478413,14.5714286 7.71428571,14.5714286 C5.11065761,14.5714286 3,16.6820862 3,19.2857143 C3,19.837999 2.55228475,20.2857143 2,20.2857143 C1.44771525,20.2857143 1,19.837999 1,19.2857143 C1,15.5775167 4.00608811,12.5714286 7.71428571,12.5714286 C11.4224833,12.5714286 14.4285714,15.5775167 14.4285714,19.2857143 C14.4285714,19.837999 13.9808562,20.2857143 13.4285714,20.2857143 L5.47142589,20.2857143 C4.91914114,20.2857143 4.47142589,19.837999 4.47142589,19.2857143 C4.47142589,18.7334295 4.91914114,18.2857143 5.47142589,18.2857143 L12.3222983,18.2857143 Z M16.2857143,11.7142857 C14.1554731,11.7142857 12.4285714,9.98738403 12.4285714,7.85714286 C12.4285714,5.72690168 14.1554731,4 16.2857143,4 C18.4159555,4 20.1428571,5.72690168 20.1428571,7.85714286 C20.1428571,9.98738403 18.4159555,11.7142857 16.2857143,11.7142857 Z M16.2857143,9.71428571 C17.311386,9.71428571 18.1428571,8.88281454 18.1428571,7.85714286 C18.1428571,6.83147118 17.311386,6 16.2857143,6 C15.2600426,6 14.4285714,6.83147118 14.4285714,7.85714286 C14.4285714,8.88281454 15.2600426,9.71428571 16.2857143,9.71428571 Z M16.2857143,14.5714286 C15.8847149,14.5714286 15.4911575,14.6212707 15.1109472,14.718723 C14.5759562,14.8558473 14.0310991,14.5333126 13.8939748,13.9983216 C13.7568505,13.4633306 14.0793852,12.9184735 14.6143762,12.7813492 C15.156498,12.6423971 15.7168714,12.5714286 16.2857143,12.5714286 C19.9939119,12.5714286 23,15.5775167 23,19.2857143 C23,19.837999 22.5522847,20.2857143 22,20.2857143 L17.614283,20.2857143 C17.0619983,20.2857143 16.614283,19.837999 16.614283,19.2857143 C16.614283,18.7334295 17.0619983,18.2857143 17.614283,18.2857143 L20.8937269,18.2857143 C20.4351148,16.1624217 18.5462127,14.5714286 16.2857143,14.5714286 Z" id="path-1"></path>
    </defs>
    <g id="icon/social/ic-people-outline" stroke="none" stroke-width="1" fill="none" fill-rule="evenodd">
        <mask id="mask-2" fill="white">
            <use xlink:href="#path-1"></use>
        </mask>
        <use id="Mask" fill="#333340" xlink:href="#path-1"></use>
    </g>
</svg>