<?xml version="1.0" encoding="UTF-8"?>
<svg width="24px" height="24px" viewBox="0 0 24 24" version="1.1" xmlns="http://www.w3.org/2000/svg" xmlns:xlink="http://www.w3.org/1999/xlink">
    <!-- Generator: Sketch 52.5 (67469) - http://www.bohemiancoding.com/sketch -->
    <title>icon/action/ic-search</title>
    <desc>Created with Sketch.</desc>
    <g id="icon/action/ic-search" stroke="none" stroke-width="1" fill="none" fill-rule="evenodd">
        <g id="Group" transform="translate(4.000000, 4.000000)" fill="#333340">
            <path d="M11.3907479,9.97653436 L15.2071068,13.7928932 C15.5976311,14.1834175 15.5976311,14.8165825 15.2071068,15.2071068 C14.8165825,15.5976311 14.1834175,15.5976311 13.7928932,15.2071068 L9.97653436,11.3907479 C8.99571549,12.089209 7.79583043,12.5 6.5,12.5 C3.1862915,12.5 0.5,9.8137085 0.5,6.5 C0.5,3.1862915 3.1862915,0.5 6.5,0.5 C9.8137085,0.5 12.5,3.1862915 12.5,6.5 C12.5,7.79583043 12.089209,8.99571549 11.3907479,9.97653436 Z M6.5,10.5 C8.709139,10.5 10.5,8.709139 10.5,6.5 C10.5,4.290861 8.709139,2.5 6.5,2.5 C4.290861,2.5 2.5,4.290861 2.5,6.5 C2.5,8.709139 4.290861,10.5 6.5,10.5 Z" id="Combined-Shape"></path>
        </g>
    </g>
</svg>