<?xml version="1.0" encoding="UTF-8"?>
<svg width="48px" height="36px" viewBox="0 0 48 36" version="1.1" xmlns="http://www.w3.org/2000/svg" xmlns:xlink="http://www.w3.org/1999/xlink">
    <!-- Generator: Sketch 52.5 (67469) - http://www.bohemiancoding.com/sketch -->
    <title>ic_nav_collections</title>
    <desc>Created with Sketch.</desc>
    <defs>
        <filter x="-16.0%" y="-2.1%" width="132.0%" height="104.1%" filterUnits="objectBoundingBox" id="filter-1">
            <feOffset dx="2" dy="0" in="SourceAlpha" result="shadowOffsetOuter1"></feOffset>
            <feGaussianBlur stdDeviation="3" in="shadowOffsetOuter1" result="shadowBlurOuter1"></feGaussianBlur>
            <feColorMatrix values="0 0 0 0 0   0 0 0 0 0.137254902   0 0 0 0 0.149019608  0 0 0 0.25 0" type="matrix" in="shadowBlurOuter1" result="shadowMatrixOuter1"></feColorMatrix>
            <feMerge>
                <feMergeNode in="shadowMatrixOuter1"></feMergeNode>
                <feMergeNode in="SourceGraphic"></feMergeNode>
            </feMerge>
        </filter>
    </defs>
    <g id="Brand/Collections" stroke="none" stroke-width="1" fill="none" fill-rule="evenodd">
        <g id="ðŸ¡-Collections/No-Collection" transform="translate(-26.000000, -70.000000)">
            <g id="NavBar_Left" filter="url(#filter-1)" transform="translate(0.000000, 56.000000)">
                <g id="Leftnav_item">
                    <g id="Group" transform="translate(26.000000, 14.000000)">
                        <rect id="ic_nav_collections" x="0" y="0" width="48" height="36"></rect>
                        <g id="Group-7" transform="translate(2.000000, 8.000000)" stroke="#FFFFFF" stroke-linecap="round" stroke-linejoin="round" stroke-width="1.5">
                            <g id="Group-9">
                                <g id="Group-10" transform="translate(10.000000, 0.000000)">
                                    <path d="M7,0 L17,8.8817842e-16 C20.8659932,1.78006981e-16 24,3.13400675 24,7 L24,13 L19,13 L19,22 L5,22 L5,13 L0,13 L0,7 C-4.73447626e-16,3.13400675 3.13400675,1.59834986e-15 7,8.8817842e-16 Z" id="Rectangle"></path>
                                    <path d="M7,0 C7,2.76142375 9.23857625,5 12,5 C14.7614237,5 17,2.76142375 17,0" id="Path"></path>
                                    <path d="M5,20.5 L5,8.5" id="Line-2"></path>
                                    <path d="M19,20.5 L19,8.5" id="Line-2-Copy"></path>
                                </g>
                                <path d="M38.5,3 L38.5,19" id="Line"></path>
                                <path d="M43.5,6 L43.5,16" id="Line-Copy-3"></path>
                                <path d="M5.5,3 L5.5,19" id="Line-Copy"></path>
                                <path d="M0.5,6 L0.5,16" id="Line-Copy-2"></path>
                            </g>
                        </g>
                    </g>
                </g>
            </g>
        </g>
    </g>
</svg>