<?xml version="1.0" encoding="UTF-8"?>
<svg width="48px" height="36px" viewBox="0 0 48 36" version="1.1" xmlns="http://www.w3.org/2000/svg" xmlns:xlink="http://www.w3.org/1999/xlink">
    <!-- Generator: Sketch 52.5 (67469) - http://www.bohemiancoding.com/sketch -->
    <title>ic_nav_production</title>
    <desc>Created with Sketch.</desc>
    <defs>
        <filter x="-16.0%" y="-2.1%" width="132.0%" height="104.1%" filterUnits="objectBoundingBox" id="filter-1">
            <feOffset dx="2" dy="0" in="SourceAlpha" result="shadowOffsetOuter1"></feOffset>
            <feGaussianBlur stdDeviation="3" in="shadowOffsetOuter1" result="shadowBlurOuter1"></feGaussianBlur>
            <feColorMatrix values="0 0 0 0 0   0 0 0 0 0.137254902   0 0 0 0 0.149019608  0 0 0 0.25 0" type="matrix" in="shadowBlurOuter1" result="shadowMatrixOuter1"></feColorMatrix>
            <feMerge>
                <feMergeNode in="shadowMatrixOuter1"></feMergeNode>
                <feMergeNode in="SourceGraphic"></feMergeNode>
            </feMerge>
        </filter>
    </defs>
    <g id="Brand/Collections" stroke="none" stroke-width="1" fill="none" fill-rule="evenodd">
        <g id="ðŸ¡-Collections/No-Collection" transform="translate(-26.000000, -250.000000)">
            <g id="NavBar_Left" filter="url(#filter-1)" transform="translate(0.000000, 56.000000)">
                <g id="Leftnav_item" transform="translate(0.000000, 180.000000)">
                    <g id="Group-5" transform="translate(26.000000, 14.000000)">
                        <rect id="ic_nav_production" x="0" y="0" width="48" height="36"></rect>
                        <path d="M34.6091035,10.0344827 L35.5862069,10.0344827 C36.9193448,10.0344827 38,11.1151379 38,12.4482758 L38,14.862069 C38,16.1952069 36.9193448,17.2758621 35.5862069,17.2758621 L34.6139311,17.2758621 L34.6199655,26.2068966 L35.5862069,26.2068966 C36.9193448,26.2068966 38,27.2875517 38,28.6206897 L38,32 L10,32 L10,28.6206897 C10,27.2875517 11.0806552,26.2068966 12.4137931,26.2068966 L24,26.2068966 L24,20.8965517 C24,19.0302069 22.4870345,17.5172414 20.6206896,17.5172414 L16.0658621,17.5172414 L15.3103448,20.8965517 L13.3793103,20.8965517 L13.3793103,22.8275862 L11.9310345,22.8275862 L11.9310345,20.8965517 L10,20.8965517 L10,9.55172413 C10.133,8.33203448 11.1622414,7.37931033 12.4137931,7.37931033 L13.3793103,7.37931033 L13.3793103,5.44827584 L14.8275862,5.44827584 L14.8275862,7.37931033 L28.3448276,7.37931033 L28.3448276,5.44827584 L26.6551724,5.44827584 L26.6551724,4 L31.4827586,4 L31.4827586,5.44827584 L29.7931035,5.44827584 L29.7931035,7.37931033 L32.2068966,7.37931033 C33.4584483,7.37931033 34.4876897,8.33203448 34.6086207,9.55172413 L34.6091035,10.0344827 Z M33.1724138,17.2758621 L33.1724138,9.74337929 C33.119069,9.20558617 32.7038965,8.82758617 32.2068966,8.8275862 L12.4137931,8.8275862 C11.9185643,8.82760388 11.5036041,9.20221492 11.4531034,9.69486206 L11.4482758,19.4482759 L14.1500345,19.4482759 L14.9055517,16.0689655 L20.6206896,16.0689655 C23.2869655,16.0689655 25.4482758,18.2302759 25.4482759,20.8965517 L25.4482759,25.9655173 L33.1724138,25.9655173 L33.1724138,17.2758621 Z M11.4482758,30.5517242 L36.5517242,30.5517242 L36.5517242,28.6206897 C36.5517242,28.3646186 36.4500003,28.1190355 36.2689307,27.9379659 C36.0878611,27.7568962 35.842278,27.6551724 35.5862069,27.6551724 L12.4137931,27.6551724 C12.157722,27.6551724 11.9121389,27.7568962 11.7310693,27.9379659 C11.5499997,28.1190355 11.4482758,28.3646186 11.4482758,28.6206897 L11.4482758,30.5517242 Z M34.6206897,11.4827586 L34.6206897,15.8275862 L35.5862069,15.8275862 C35.842278,15.8275862 36.0878611,15.7258624 36.2689307,15.5447928 C36.4500003,15.3637232 36.5517242,15.1181401 36.5517242,14.862069 L36.5517242,12.4482758 C36.5517242,12.1922047 36.4500003,11.9466217 36.2689307,11.7655521 C36.0878611,11.5844824 35.842278,11.4827586 35.5862069,11.4827586 L34.6206897,11.4827586 Z M29.3103448,16.0689655 C27.9772069,16.0689655 26.8965517,14.9883104 26.8965517,13.6551724 C26.8965517,12.3220345 27.9772069,11.2413793 29.3103448,11.2413793 C30.6434828,11.2413793 31.7241379,12.3220345 31.724138,13.6551724 C31.724138,14.9883104 30.6434828,16.0689655 29.3103448,16.0689655 Z M29.3103448,14.6206896 C29.8435853,14.6206896 30.275862,14.1884128 30.275862,13.6551724 C30.275862,13.121932 29.8435853,12.6896552 29.3103448,12.6896552 C28.7771044,12.6896552 28.3448276,13.121932 28.3448276,13.6551724 C28.3448276,14.1884128 28.7771044,14.6206896 29.3103448,14.6206896 Z M26.8965517,19.9310345 L26.8965517,18.4827586 L31.724138,18.4827586 L31.724138,19.9310345 L26.8965517,19.9310345 Z M26.8965517,23.5517242 L26.8965517,22.1034483 L31.724138,22.1034483 L31.724138,23.5517242 L26.8965517,23.5517242 Z" id="Shape" fill="#FFFFFF" fill-rule="nonzero"></path>
                    </g>
                </g>
            </g>
        </g>
    </g>
</svg>